<svg width="40" height="40" viewBox="0 0 40 40" fill="none" xmlns="http://www.w3.org/2000/svg">
  <rect width="40" height="40" rx="8" fill="#4F46E5"/>
  <path d="M20 10C14.477 10 10 14.477 10 20C10 25.523 14.477 30 20 30C25.523 30 30 25.523 30 20C30 14.477 25.523 10 20 10ZM20 28C15.582 28 12 24.418 12 20C12 15.582 15.582 12 20 12C24.418 12 28 15.582 28 20C28 24.418 24.418 28 20 28Z" fill="white"/>
  <path d="M23 17C23 18.657 21.657 20 20 20C18.343 20 17 18.657 17 17C17 15.343 18.343 14 20 14C21.657 14 23 15.343 23 17Z" fill="white"/>
  <path d="M20 22C17.239 22 15 24.239 15 27H25C25 24.239 22.761 22 20 22Z" fill="white"/>
</svg>